HIERARCHY
ROOT Hips
{
 OFFSET 0.000000 0.000000 0.000000
 CHANNELS 6 Xposition Yposition Zposition Yrotation Xrotation Zrotation
 JOINT Chest
 {
  OFFSET 0.000000 9.303000 0.001900
  CHANNELS 3 Yrotation Xrotation Zrotation
  JOINT Chest2
  {
   OFFSET 0.000000 9.301100 -0.003900
   CHANNELS 3 Yrotation Xrotation Zrotation
   JOINT Chest3
   {
    OFFSET 0.000000 9.262800 0.000000
    CHANNELS 3 Yrotation Xrotation Zrotation
    JOINT Chest4
    {
     OFFSET 0.000000 9.253300 0.000000
     CHANNELS 3 Yrotation Xrotation Zrotation
     JOINT Neck
     {
      OFFSET 0.000000 14.010300 0.000000
      CHANNELS 3 Yrotation Xrotation Zrotation
      JOINT Head
      {
       OFFSET 0.000000 8.657600 -0.008300
       CHANNELS 3 Yrotation Xrotation Zrotation
       End Site
       {
        OFFSET 0.000000 16.540200 -0.004400
       }
      }
     }
     JOINT RightCollar
     {
      OFFSET -2.834100 9.267700 0.000000
      CHANNELS 3 Yrotation Xrotation Zrotation
      JOINT RightShoulder
      {
       OFFSET -13.135200 0.000000 0.000000
       CHANNELS 3 Yrotation Xrotation Zrotation
       JOINT RightElbow
       {
        OFFSET 0.000000 -28.893500 0.000000
        CHANNELS 3 Yrotation Xrotation Zrotation
        JOINT RightWrist
        {
         OFFSET 0.000000 -23.344000 0.000000
         CHANNELS 3 Yrotation Xrotation Zrotation
         End Site
         {
          OFFSET 0.000000 -17.223000 0.000000
         }
        }
       }
      }
     }
     JOINT LeftCollar
     {
      OFFSET 2.834100 9.267700 0.000000
      CHANNELS 3 Yrotation Xrotation Zrotation
      JOINT LeftShoulder
      {
       OFFSET 13.135200 0.000000 0.000000
       CHANNELS 3 Yrotation Xrotation Zrotation
       JOINT LeftElbow
       {
        OFFSET 0.000000 -28.893500 0.000000
        CHANNELS 3 Yrotation Xrotation Zrotation
        JOINT LeftWrist
        {
         OFFSET 0.000000 -23.344000 0.000000
         CHANNELS 3 Yrotation Xrotation Zrotation
         End Site
         {
          OFFSET 0.000000 -17.223000 0.000000
         }
        }
       }
      }
     }
    }
   }
  }
 }
 JOINT RightHip
 {
  OFFSET -7.547200 -0.009500 -0.001000
  CHANNELS 3 Yrotation Xrotation Zrotation
  JOINT RightKnee
  {
   OFFSET 0.000000 -39.762800 0.000900
   CHANNELS 3 Yrotation Xrotation Zrotation
   JOINT RightAnkle
   {
    OFFSET 0.000000 -38.588200 0.001600
    CHANNELS 3 Yrotation Xrotation Zrotation
    JOINT RightToe
    {
     OFFSET 0.000000 -4.693300 10.419700
     CHANNELS 3 Yrotation Xrotation Zrotation
     End Site
     {
      OFFSET 0.000000 -1.379900 5.669300
     }
    }
   }
  }
 }
 JOINT LeftHip
 {
  OFFSET 7.547200 -0.009500 -0.001000
  CHANNELS 3 Yrotation Xrotation Zrotation
  JOINT LeftKnee
  {
   OFFSET 0.000000 -39.762800 0.000900
   CHANNELS 3 Yrotation Xrotation Zrotation
   JOINT LeftAnkle
   {
    OFFSET 0.000000 -38.588200 0.001600
    CHANNELS 3 Yrotation Xrotation Zrotation
    JOINT LeftToe
    {
     OFFSET 0.000000 -4.693300 10.419700
     CHANNELS 3 Yrotation Xrotation Zrotation
     End Site
     {
      OFFSET 0.000000 -1.379900 5.669300
     }
    }
   }
  }
 }
}
MOTION
Frames: 13
Frame Time: 0.008333
6.250101 45.113128 2.339015 172.937994 -6.897318 0.453969 2.058699 3.780824 0.845891 0.047154 0.092178 0.010243 0.083912 0.164287 0.018358 1.856372 3.597281 0.459795 3.498150 17.760212 -4.869702 4.903277 -6.786964 -6.067932 15.155405 -5.628195 -10.599271 4.890362 -37.545998 -34.088046 -58.564680 -76.743098 58.825697 -18.493460 -16.989862 -14.795246 -13.766330 -11.248498 -0.845843 1.802912 -31.917260 22.588614 75.344026 -58.906370 -96.558714 14.122277 -12.644635 10.505872 -28.640483 -81.924768 15.726148 -147.565602 82.225384 -148.167908 -12.049931 -24.900008 9.255040 -0.214010 0.246039 0.218836 -20.464248 -75.931301 30.356609 155.030615 69.702588 151.691258 -8.697031 -22.741706 0.513201 0.173726 -0.387450 -0.013323
6.255150 45.097104 2.280323 172.690848 -6.743532 0.400112 1.967736 3.618582 0.865570 0.043080 0.083956 0.010462 0.076773 0.149878 0.018752 1.778614 3.436265 0.483386 3.459803 17.747633 -4.747532 4.829709 -6.810466 -5.922050 15.151000 -5.700813 -10.546230 5.052761 -37.332412 -34.267765 -63.162398 -77.903745 63.768904 -18.705210 -17.000707 -15.135143 -13.559497 -11.341984 -0.686793 2.086264 -31.825898 22.867896 77.186779 -59.259435 -98.242261 14.067923 -12.600046 10.488508 -28.673384 -82.036835 16.121398 -147.222333 82.177459 -147.806234 -11.940630 -24.908844 9.238973 -0.237127 0.259677 0.208769 -20.925466 -76.019405 31.052856 155.234981 69.584322 151.898843 -8.657452 -22.815842 0.466475 0.169460 -0.381590 -0.001712
6.258844 45.082171 2.220309 172.428107 -6.607595 0.366155 1.884446 3.467061 0.869573 0.039286 0.076442 0.010415 0.070172 0.136690 0.018671 1.702712 3.281678 0.497327 3.414316 17.735513 -4.601986 4.742468 -6.834993 -5.748774 15.121715 -5.745212 -10.484652 5.337089 -37.031499 -34.496611 -68.783458 -78.935500 69.588232 -18.848012 -17.053308 -15.647606 -13.350922 -11.401027 -0.563192 2.444502 -31.745387 23.135442 78.857815 -59.606633 -99.838812 13.991724 -12.541774 10.455810 -28.605190 -82.140875 16.419330 -146.891617 82.130224 -147.465671 -11.832731 -24.918723 9.222427 -0.258231 0.276019 0.197404 -21.213852 -76.106121 31.600251 155.456572 69.468422 152.133638 -8.626410 -22.860966 0.439571 0.170984 -0.408794 0.001636
6.265425 45.068077 2.164447 172.153493 -6.461418 0.325671 1.815447 3.299364 0.882080 0.035834 0.069465 0.010169 0.064114 0.124288 0.018192 1.632023 3.129131 0.503127 3.357164 17.726301 -4.433294 4.636700 -6.857948 -5.547333 15.057546 -5.752318 -10.409954 5.707058 -36.684979 -34.753744 -75.432479 -79.837666 76.321320 -18.948280 -17.147206 -16.230408 -13.152809 -11.414761 -0.472162 2.885264 -31.681861 23.379204 80.359432 -59.941931 -101.358090 13.894764 -12.468401 10.411440 -28.725960 -82.246485 16.900934 -146.643359 82.091763 -147.231952 -11.628889 -24.923143 9.197298 -0.243906 0.288461 0.183841 -21.487865 -76.196023 32.152237 155.673425 69.360985 152.363194 -8.579618 -22.941598 0.416701 0.157229 -0.404063 0.001369
6.273145 45.055312 2.111132 171.875503 -6.315377 0.291359 1.759748 3.127965 0.888860 0.032752 0.062968 0.009783 0.058625 0.112675 0.017485 1.567363 2.978332 0.504008 3.285713 17.720600 -4.243703 4.510236 -6.878554 -5.319794 14.952147 -5.716221 -10.323815 6.100854 -36.346813 -34.998295 -83.076866 -80.602225 83.992573 -19.019210 -17.271915 -16.802188 -12.974342 -11.375413 -0.410230 3.409658 -31.634677 23.593350 81.706473 -60.256006 -102.814467 13.785316 -12.374055 10.360892 -28.922664 -82.349185 17.457203 -146.407962 82.062027 -147.024307 -11.462319 -24.927606 9.175623 -0.224254 0.308705 0.177113 -21.699370 -76.284310 32.651814 155.878492 69.259419 152.578558 -8.532024 -23.041861 0.401720 0.132138 -0.383611 -0.002053
6.280489 45.044341 2.058221 171.603561 -6.182904 0.272325 1.711728 2.968547 0.878493 0.029953 0.056868 0.009370 0.053645 0.101886 0.016712 1.507315 2.829033 0.502615 3.199311 17.718129 -4.036291 4.363388 -6.896807 -5.069594 14.807573 -5.644412 -10.224806 6.459582 -36.052437 -35.191356 -91.660823 -81.214342 92.608396 -19.043137 -17.405434 -17.325174 -12.821822 -11.282393 -0.376791 4.010225 -31.593224 23.781289 82.900719 -60.541366 -104.197575 13.670983 -12.257166 10.303702 -29.074988 -82.441774 17.969560 -146.124308 82.038652 -146.767037 -11.469666 -24.935607 9.172381 -0.238056 0.341907 0.178047 -21.780235 -76.371417 33.028346 156.075480 69.158928 152.791378 -8.506535 -23.140012 0.399494 0.109502 -0.369944 -0.004229
6.292053 45.034967 2.009431 171.294069 -6.046759 0.238295 1.717934 2.804544 0.883916 0.027352 0.051135 0.008923 0.049030 0.091692 0.015956 1.449951 2.679973 0.501262 3.099592 17.719862 -3.814187 4.198956 -6.911322 -4.800771 14.627981 -5.557556 -10.110097 6.750417 -35.807912 -35.304057 -101.034136 -81.654727 102.067434 -18.999726 -17.533099 -17.786485 -12.692388 -11.138799 -0.368911 4.674534 -31.545385 23.940854 83.931936 -60.790452 -105.484804 13.553675 -12.117991 10.229975 -29.437282 -82.523718 18.717292 -145.928389 82.028620 -146.615330 -11.439223 -24.977060 9.174800 -0.256912 0.407527 0.164033 -21.904186 -76.461327 33.488753 156.252756 69.047851 152.979796 -8.459324 -23.215328 0.402240 0.057534 -0.383391 -0.017277
6.296681 45.027528 1.960705 171.023538 -5.923395 0.247226 1.698012 2.654077 0.838654 0.024888 0.045803 0.008519 0.044691 0.082128 0.015291 1.392854 2.532640 0.503352 2.989376 17.726700 -3.580775 4.020927 -6.920589 -4.518069 14.422710 -5.466901 -9.981471 6.954113 -35.613853 -35.320912 -110.860015 -81.908069 112.060320 -18.888013 -17.649524 -18.172826 -12.575046 -10.951213 -0.381062 5.389170 -31.479872 24.066351 84.792986 -60.992197 -106.661184 13.432701 -11.956024 10.132860 -29.648111 -82.617849 19.253099 -145.843483 82.027025 -146.572170 -11.576484 -24.976416 9.185991 -0.297858 0.434604 0.158399 -21.852731 -76.556518 33.733154 156.403915 68.934680 153.135019 -8.419399 -23.293959 0.406856 0.008187 -0.396203 -0.026784
6.308874 45.021876 1.914188 170.755407 -5.815006 0.206285 1.691025 2.514297 0.839671 0.022560 0.040911 0.008293 0.040538 0.073431 0.014802 1.333542 2.390491 0.512507 2.870597 17.739085 -3.338811 3.832186 -6.923773 -4.225134 14.204299 -5.366524 -9.843078 7.056331 -35.468198 -35.242466 -120.722791 -81.959975 122.181191 -18.717557 -17.743436 -18.471189 -12.461498 -10.726853 -0.411702 6.144181 -31.387585 24.155301 85.476993 -61.139847 -107.714549 13.308159 -11.770764 10.012648 -30.110252 -82.661937 20.076352 -145.483208 82.019083 -146.259357 -11.838518 -24.976641 9.226469 -0.311791 0.471774 0.166887 -21.895505 -76.600573 34.129299 156.620500 68.857795 153.351544 -8.461271 -23.436512 0.427238 0.022900 -0.348128 -0.011917
6.325039 45.017502 1.872677 170.445489 -5.703084 0.132426 1.739487 2.365043 0.875202 0.020366 0.036483 0.008154 0.036599 0.065549 0.014515 1.272246 2.253858 0.528991 2.743847 17.758825 -3.089329 3.633814 -6.918766 -3.923237 13.976932 -5.250750 -9.698171 7.057453 -35.354933 -35.077904 -130.180898 -81.804940 131.986104 -18.510503 -17.805168 -18.670984 -12.346921 -10.469836 -0.460632 6.923031 -31.259504 24.205931 85.981682 -61.238380 -108.628248 13.185057 -11.566176 9.871908 -30.861310 -82.685682 21.209716 -145.199237 82.016937 -146.034834 -11.970467 -25.006672 9.253944 -0.288182 0.527701 0.164825 -22.116040 -76.647474 34.729304 156.801403 68.756097 153.524212 -8.442623 -23.534661 0.457858 -0.024388 -0.344631 -0.035970
6.328694 45.015106 1.823826 170.221109 -5.647754 0.120356 1.712163 2.268494 0.841245 0.018336 0.032486 0.008042 0.032989 0.058397 0.014401 1.211270 2.121242 0.550858 2.608621 17.786875 -2.832960 3.425531 -6.904353 -3.613156 13.739966 -5.123204 -9.547924 6.965593 -35.247779 -34.839765 -138.803664 -81.460940 141.032006 -18.292127 -17.841373 -18.758461 -12.224580 -10.184517 -0.522684 7.704329 -31.083537 24.212447 86.309213 -61.296885 -109.387569 13.067032 -11.358212 9.716637 -31.046951 -82.702111 21.677576 -144.872507 82.004546 -145.698400 -12.459296 -25.011574 9.282252 -0.365503 0.553104 0.173053 -22.060821 -76.668572 34.964117 156.994794 68.656818 153.700267 -8.463719 -23.609777 0.481447 -0.049022 -0.383914 -0.029448
6.321563 45.013919 1.772024 169.966275 -5.623698 0.163517 1.724083 2.199193 0.756609 0.016474 0.028866 0.007956 0.029570 0.051938 0.014337 1.148761 1.993900 0.574618 2.466858 17.821054 -2.570718 3.209727 -6.882739 -3.296508 13.499369 -4.990662 -9.393953 6.783138 -35.123501 -34.535408 -146.343343 -80.957798 149.055680 -18.075750 -17.856610 -18.726329 -12.080480 -9.878687 -0.588960 8.470165 -30.849460 24.163174 86.457562 -61.327084 -109.981533 12.956330 -11.165315 9.557874 -30.731179 -82.720455 21.701516 -144.435049 81.995726 -145.263764 -13.090745 -25.047755 9.371124 -0.584220 0.609178 0.132307 -21.706233 -76.677891 34.927990 157.192405 68.563839 153.872164 -8.496036 -23.637175 0.497156 -0.067769 -0.468943 -0.002066
6.326423 45.012000 1.737398 169.708944 -5.533230 0.098079 1.751724 2.055840 0.779689 0.014662 0.025557 0.007836 0.026290 0.046045 0.014150 1.082981 1.871838 0.596760 2.321194 17.859044 -2.303005 2.989328 -6.856221 -2.974274 13.258392 -4.853893 -9.238919 6.508910 -34.974491 -34.164736 -152.737535 -80.325427 155.986920 -17.876885 -17.843523 -18.578488 -11.904905 -9.558896 -0.652992 9.204168 -30.550762 24.051816 86.426252 -61.340063 -110.398581 12.857764 -10.991228 9.409899 -31.382380 -82.734403 22.664303 -144.272939 82.013200 -145.196549 -13.082463 -25.015775 9.420753 -0.527857 0.590842 0.090936 -21.854772 -76.707568 35.418258 157.399513 68.481368 154.051234 -8.506571 -23.756044 0.545484 -0.089962 -0.442388 -0.014157
